<svg width="151" height="33" viewBox="0 0 151 33" fill="none" xmlns="http://www.w3.org/2000/svg">
<g filter="url(#filter0_dd_2012_121)">
<path d="M18.483 18.5277H13.4883V23.5225H18.483V18.5277Z" fill="#00C7B8"/>
<path d="M13.4889 13.533H8.49414V18.5277H13.4889V13.533Z" fill="#00C7B8"/>
<path d="M8.49477 18.5277H3.5V23.5225H8.49477V18.5277Z" fill="#00C7B8"/>
<path d="M13.4877 23.5213H8.49414L13.4877 18.5277V23.5213Z" fill="#541AA9"/>
<path d="M13.4889 23.5212H8.49414V28.516H13.4889V23.5212Z" fill="#00C7B8"/>
<path d="M17.0012 3.48389H8.4668V11.0403H13.4532V8.46913H17.0012C20.5908 8.46913 23.5153 11.3913 23.5153 14.9833V18.5312H20.9799V23.5177H28.5006V14.9845C28.5018 8.64403 23.3416 3.48389 17.0012 3.48389Z" fill="#541AA9"/>
</g>
<path d="M42.2797 18.681H37.9122V23.1265H35V8.02085C37.4272 8.02085 39.8543 8 42.2797 8C49.8241 8 49.8472 18.681 42.2797 18.681ZM37.9122 16.0707H42.2797C46.0075 16.0707 45.9862 10.7198 42.2797 10.7198H37.9122V16.0707Z" fill="black"/>
<path d="M51.8538 8.02087V13.9331C52.824 12.7027 54.0162 12.336 55.2511 12.336C58.3393 12.336 59.7074 14.3867 59.7074 17.5149V23.1248H57.0155V17.5358C57.0155 15.5945 55.9779 14.7743 54.544 14.7743C52.9555 14.7743 51.8521 16.0898 51.8521 17.6869V23.1248H49.1602V8.02087H51.8521H51.8538Z" fill="black"/>
<path d="M70.0556 12.4872H72.6373V23.1247H70.1L69.9667 21.5711C69.3484 22.8223 67.6497 23.4271 66.4362 23.448C63.2148 23.4688 60.832 21.5276 60.832 17.7947C60.832 14.0617 63.3249 12.2056 66.5019 12.2282C67.9571 12.2282 69.3484 12.8973 69.965 13.9539L70.0538 12.4872H70.0556ZM63.5257 17.7947C63.5257 19.8228 64.9596 21.0306 66.7471 21.0306C70.9831 21.0306 70.9831 14.5796 66.7471 14.5796C64.9596 14.5796 63.5257 15.7665 63.5257 17.7947Z" fill="black"/>
<path d="M76.8503 12.4872L77.0493 13.7176C77.888 12.402 79.0127 12.2074 80.1161 12.2074C81.2196 12.2074 82.323 12.6384 82.9182 13.2223L81.7046 15.5094C81.1538 15.0558 80.6456 14.8194 79.7626 14.8194C78.35 14.8194 77.0493 15.5528 77.0493 17.5166V23.1265H74.3574V12.4889H76.8503V12.4872Z" fill="black"/>
<path d="M90.614 23.1248V17.428C90.614 16.0256 89.8642 14.7517 88.3858 14.7517C86.9075 14.7517 86.0689 16.0256 86.0689 17.428V23.1248H83.377V12.4647H85.8699L86.0689 13.7594C86.6428 12.6801 87.9008 12.2926 88.9367 12.2926C90.2391 12.2926 91.5397 12.8105 92.1581 14.2773C93.1282 12.767 94.3862 12.336 95.7988 12.336C98.8869 12.336 100.41 14.1921 100.41 17.3846V23.1248H97.7178V17.3846C97.7178 15.9821 97.1225 14.7951 95.6655 14.7951C94.2085 14.7951 93.3041 16.0256 93.3041 17.428V23.1248H90.6122H90.614Z" fill="black"/>
<path d="M111.222 12.4872H113.803V23.1247H111.266L111.133 21.5711C110.514 22.8223 108.816 23.4271 107.602 23.448C104.381 23.4688 101.998 21.5276 101.998 17.7947C101.998 14.0617 104.491 12.2056 107.668 12.2282C109.123 12.2282 110.514 12.8973 111.131 13.9539L111.22 12.4872H111.222ZM104.692 17.7947C104.692 19.8228 106.126 21.0306 107.913 21.0306C112.149 21.0306 112.149 14.5796 107.913 14.5796C106.126 14.5796 104.692 15.7665 104.692 17.7947Z" fill="black"/>
<path d="M118.016 12.4872L118.215 13.7176C119.054 12.402 120.179 12.2074 121.282 12.2074C122.386 12.2074 123.489 12.6384 124.084 13.2223L122.871 15.5094C122.32 15.0558 121.812 14.8194 120.929 14.8194C119.516 14.8194 118.215 15.5528 118.215 17.5166V23.1265H115.523V12.4889H118.016V12.4872Z" fill="black"/>
<path d="M127.524 12.4872V18.0536C127.524 19.6716 128.429 20.902 130.15 20.902C131.872 20.902 132.929 19.543 132.929 17.925V12.4872H135.598V23.1473H133.194L133.018 21.7014C131.893 22.7806 130.856 23.2985 129.335 23.2985C126.732 23.2985 124.834 21.3782 124.834 18.0762V12.4872H127.526H127.524Z" fill="black"/>
<path d="M145.437 23.1248V17.5584C145.437 15.9404 144.533 14.71 142.811 14.71C141.089 14.71 140.032 16.069 140.032 17.687V23.1248H137.363V12.4647H139.767L139.943 13.9106C141.047 12.854 142.15 12.3135 143.516 12.3135C146.075 12.3135 148.127 14.1904 148.127 17.5358V23.1248H145.435H145.437Z" fill="black"/>
<defs>
<filter id="filter0_dd_2012_121" x="0.5" y="1.48389" width="31" height="31.0321" filterUnits="userSpaceOnUse" color-interpolation-filters="sRGB">
<feFlood flood-opacity="0" result="BackgroundImageFix"/>
<feColorMatrix in="SourceAlpha" type="matrix" values="0 0 0 0 0 0 0 0 0 0 0 0 0 0 0 0 0 0 127 0" result="hardAlpha"/>
<feOffset dy="1"/>
<feGaussianBlur stdDeviation="1"/>
<feColorMatrix type="matrix" values="0 0 0 0 0.0627451 0 0 0 0 0.0941176 0 0 0 0 0.156863 0 0 0 0.06 0"/>
<feBlend mode="normal" in2="BackgroundImageFix" result="effect1_dropShadow_2012_121"/>
<feColorMatrix in="SourceAlpha" type="matrix" values="0 0 0 0 0 0 0 0 0 0 0 0 0 0 0 0 0 0 127 0" result="hardAlpha"/>
<feOffset dy="1"/>
<feGaussianBlur stdDeviation="1.5"/>
<feColorMatrix type="matrix" values="0 0 0 0 0.0627451 0 0 0 0 0.0941176 0 0 0 0 0.156863 0 0 0 0.1 0"/>
<feBlend mode="normal" in2="effect1_dropShadow_2012_121" result="effect2_dropShadow_2012_121"/>
<feBlend mode="normal" in="SourceGraphic" in2="effect2_dropShadow_2012_121" result="shape"/>
</filter>
</defs>
</svg>
